<svg width="191" height="39" viewBox="0 0 191 39" fill="none" xmlns="http://www.w3.org/2000/svg">
<g filter="url(#filter0_d)">
<path d="M6.0293 24.0574H4V10.8995H6.0293V16.6364H12.8915V10.8995H14.9208V24.0574H12.8915V18.0574H6.0293V24.0574Z" fill="#224CFF"/>
<path d="M20.7774 15.189L18.935 14.61C19.2376 13.2767 19.8695 12.2855 20.8308 11.6364C21.792 10.9697 23.0203 10.6364 24.5156 10.6364C26.2244 10.6364 27.4883 10.9872 28.3071 11.689C29.126 12.3732 29.5354 13.4258 29.5354 14.8469V22.4258H31.7516V24.0574H27.3459L27.5061 22.3995V20.6364L25.7171 23.2679C25.2721 23.6188 24.7559 23.882 24.1684 24.0574C23.5988 24.2153 23.0114 24.2942 22.4062 24.2942C21.3559 24.2942 20.4837 23.9785 19.7894 23.3469C19.0952 22.7153 18.7481 21.8293 18.7481 20.689C18.7481 19.5837 19.0774 18.7942 19.736 18.3206C20.4125 17.8293 21.2046 17.4609 22.1124 17.2153C23.0381 16.9697 23.9993 16.7504 24.9962 16.5574C26.0108 16.3644 26.8475 16.0048 27.5061 15.4785V14.9258C27.5061 14.0662 27.248 13.3907 26.7318 12.8995C26.2333 12.3907 25.4501 12.1364 24.3821 12.1364C23.2606 12.1364 22.4418 12.3907 21.9255 12.8995C21.4093 13.3907 21.0266 14.1539 20.7774 15.189ZM20.9109 20.3995C20.9109 21.1539 21.1245 21.7416 21.5517 22.1627C21.9967 22.5662 22.5486 22.7679 23.2072 22.7679C24.0794 22.7679 24.8716 22.5135 25.5836 22.0048C26.3134 21.496 26.9543 20.6539 27.5061 19.4785V15.8469C27.0255 16.4083 26.4114 16.8206 25.6637 17.0837C24.9161 17.3293 24.1862 17.5749 23.4742 17.8206C22.78 18.0486 22.1747 18.3469 21.6585 18.7153C21.1601 19.0837 20.9109 19.6451 20.9109 20.3995Z" fill="#224CFF"/>
<path d="M34.0208 17.4785C34.0208 16.4785 34.1899 15.5574 34.5281 14.7153C34.8663 13.8732 35.3292 13.1539 35.9166 12.5574C36.504 11.9609 37.1983 11.496 37.9993 11.1627C38.8181 10.8118 39.6904 10.6364 40.616 10.6364C42.0401 10.6364 43.295 11.0223 44.3809 11.7942C45.4846 12.5662 46.1788 13.6013 46.4636 14.8995L44.5945 15.61C44.3631 14.3995 43.8825 13.496 43.1526 12.8995C42.4406 12.2855 41.5595 11.9785 40.5092 11.9785C39.281 11.9785 38.2663 12.4697 37.4653 13.4521C36.682 14.4171 36.2904 15.7592 36.2904 17.4785C36.2904 19.2153 36.6998 20.5662 37.5187 21.5311C38.3375 22.4785 39.3433 22.9521 40.5359 22.9521C41.604 22.9521 42.4851 22.6364 43.1793 22.0048C43.8736 21.3557 44.3453 20.4258 44.5945 19.2153L46.4636 19.9258C46.1966 21.2592 45.5113 22.3293 44.4076 23.1364C43.3218 23.9258 42.0579 24.3206 40.616 24.3206C39.6904 24.3206 38.8181 24.1539 37.9993 23.8206C37.1983 23.4697 36.504 22.996 35.9166 22.3995C35.3292 21.803 34.8663 21.0837 34.5281 20.2416C34.1899 19.3995 34.0208 18.4785 34.0208 17.4785Z" fill="#224CFF"/>
<path d="M55.3697 24.0574H53.3404V12.3206H48.4808V10.8995H60.2294V12.3206H55.3697V24.0574Z" fill="#224CFF"/>
<path d="M64.193 15.189L62.3507 14.61C62.6533 13.2767 63.2852 12.2855 64.2465 11.6364C65.2077 10.9697 66.436 10.6364 67.9312 10.6364C69.6401 10.6364 70.904 10.9872 71.7228 11.689C72.5417 12.3732 72.9511 13.4258 72.9511 14.8469V22.4258H75.1673V24.0574H70.7616L70.9218 22.3995V20.6364L69.1328 23.2679C68.6878 23.6188 68.1715 23.882 67.5841 24.0574C67.0145 24.2153 66.4271 24.2942 65.8218 24.2942C64.7716 24.2942 63.8993 23.9785 63.2051 23.3469C62.5109 22.7153 62.1638 21.8293 62.1638 20.689C62.1638 19.5837 62.4931 18.7942 63.1517 18.3206C63.8281 17.8293 64.6203 17.4609 65.5281 17.2153C66.4538 16.9697 67.415 16.7504 68.4119 16.5574C69.4265 16.3644 70.2631 16.0048 70.9218 15.4785V14.9258C70.9218 14.0662 70.6637 13.3907 70.1474 12.8995C69.649 12.3907 68.8658 12.1364 67.7977 12.1364C66.6763 12.1364 65.8574 12.3907 65.3412 12.8995C64.825 13.3907 64.4423 14.1539 64.193 15.189ZM64.3266 20.3995C64.3266 21.1539 64.5402 21.7416 64.9674 22.1627C65.4124 22.5662 65.9642 22.7679 66.6229 22.7679C67.4951 22.7679 68.2873 22.5135 68.9993 22.0048C69.7291 21.496 70.37 20.6539 70.9218 19.4785V15.8469C70.4412 16.4083 69.827 16.8206 69.0794 17.0837C68.3318 17.3293 67.6019 17.5749 66.8899 17.8206C66.1957 18.0486 65.5904 18.3469 65.0742 18.7153C64.5758 19.0837 64.3266 19.6451 64.3266 20.3995Z" fill="#224CFF"/>
<path d="M89.0198 20.3469C89.0198 21.5399 88.5926 22.4609 87.7382 23.11C86.8837 23.7416 85.5754 24.0574 83.8131 24.0574H78.4194V10.8995H83.5728C85.2638 10.8995 86.4832 11.189 87.2308 11.7679C87.9785 12.3469 88.3523 13.1276 88.3523 14.11C88.3523 14.7416 88.1743 15.3293 87.8183 15.8732C87.4801 16.3995 86.8926 16.8206 86.056 17.1364C87.124 17.3995 87.8806 17.8118 88.3256 18.3732C88.7884 18.9346 89.0198 19.5925 89.0198 20.3469ZM83.6262 12.3206H80.4487V16.6627H83.8131C84.5785 16.6627 85.1837 16.4521 85.6288 16.0311C86.0916 15.5925 86.323 15.0486 86.323 14.3995C86.323 13.7153 86.1005 13.1978 85.6555 12.8469C85.2104 12.496 84.534 12.3206 83.6262 12.3206ZM83.8398 17.7416H80.4487V22.6364H83.733C84.801 22.6364 85.611 22.4434 86.1628 22.0574C86.7146 21.6714 86.9905 21.0574 86.9905 20.2153C86.9905 19.4609 86.7146 18.8644 86.1628 18.4258C85.6288 17.9697 84.8544 17.7416 83.8398 17.7416Z" fill="#224CFF"/>
<path d="M94.373 24.0574H92.3437V10.8995H94.373V16.6364H101.235V10.8995H103.265V24.0574H101.235V18.0574H94.373V24.0574Z" fill="#224CFF"/>
<path d="M109.575 24.0574H107.546V10.8995H109.575V21.5048L116.811 10.8995H118.84V24.0574H116.811V13.4521L109.575 24.0574Z" fill="#224CFF"/>
<path d="M132.058 24.0574L125.142 17.8206V24.0574H123.113V10.8995H125.142V16.8206L131.657 10.8995H134.114L127.145 17.1627L134.648 24.0574H132.058Z" fill="#224CFF"/>
<path d="M139.672 24.0574H137.055V21.5311H139.672V24.0574Z" fill="#224CFF"/>
<path d="M145.637 24.0574H143.608V10.8995H154.315V24.0574H152.286V12.3206H145.637V24.0574Z" fill="#224CFF"/>
<path d="M165.598 24.3206C164.352 24.3206 163.275 23.9434 162.367 23.189C161.477 22.4171 160.89 21.3206 160.605 19.8995V30.6364H158.575V10.8995H160.605V15.0048C160.907 13.5837 161.495 12.5048 162.367 11.7679C163.257 11.0135 164.316 10.6364 165.544 10.6364C166.257 10.6364 166.951 10.7767 167.627 11.0574C168.304 11.3381 168.9 11.7592 169.416 12.3206C169.932 12.8644 170.342 13.5662 170.644 14.4258C170.965 15.2855 171.125 16.2942 171.125 17.4521C171.125 18.61 170.965 19.6188 170.644 20.4785C170.342 21.3381 169.932 22.0574 169.416 22.6364C168.918 23.1978 168.33 23.6188 167.654 23.8995C166.995 24.1802 166.31 24.3206 165.598 24.3206ZM168.882 17.4785C168.882 16.5662 168.766 15.7767 168.535 15.11C168.304 14.4258 168.001 13.8644 167.627 13.4258C167.253 12.9697 166.808 12.6364 166.292 12.4258C165.794 12.1978 165.269 12.0837 164.717 12.0837C163.542 12.0837 162.563 12.5399 161.78 13.4521C161.014 14.3644 160.631 15.7065 160.631 17.4785C160.631 19.2504 161.023 20.6013 161.806 21.5311C162.59 22.4609 163.595 22.9258 164.824 22.9258C165.909 22.9258 166.853 22.4785 167.654 21.5837C168.473 20.6714 168.882 19.303 168.882 17.4785Z" fill="#224CFF"/>
<path d="M180.458 10.6364C181.366 10.6364 182.212 10.803 182.995 11.1364C183.796 11.4697 184.49 11.9434 185.078 12.5574C185.683 13.1539 186.154 13.8732 186.493 14.7153C186.831 15.5574 187 16.4785 187 17.4785C187 18.4785 186.831 19.3995 186.493 20.2416C186.154 21.0837 185.692 21.8118 185.104 22.4258C184.517 23.0223 183.823 23.4872 183.022 23.8206C182.22 24.1539 181.366 24.3206 180.458 24.3206C179.55 24.3206 178.696 24.1539 177.895 23.8206C177.094 23.4872 176.4 23.0223 175.812 22.4258C175.225 21.8118 174.753 21.0837 174.397 20.2416C174.059 19.3995 173.89 18.4785 173.89 17.4785C173.89 16.4785 174.059 15.5574 174.397 14.7153C174.753 13.8732 175.225 13.1539 175.812 12.5574C176.4 11.9434 177.094 11.4697 177.895 11.1364C178.696 10.803 179.55 10.6364 180.458 10.6364ZM180.485 12.0048C179.221 12.0048 178.18 12.4785 177.361 13.4258C176.56 14.3557 176.159 15.7065 176.159 17.4785C176.159 19.1276 176.56 20.4521 177.361 21.4521C178.18 22.4521 179.221 22.9521 180.485 22.9521C181.767 22.9521 182.79 22.4521 183.556 21.4521C184.339 20.4521 184.73 19.1276 184.73 17.4785C184.73 15.7065 184.339 14.3557 183.556 13.4258C182.79 12.4785 181.767 12.0048 180.485 12.0048Z" fill="#224CFF"/>
</g>
<defs>
<filter id="filter0_d" x="0" y="0.636353" width="191" height="38" filterUnits="userSpaceOnUse" color-interpolation-filters="sRGB">
<feFlood flood-opacity="0" result="BackgroundImageFix"/>
<feColorMatrix in="SourceAlpha" type="matrix" values="0 0 0 0 0 0 0 0 0 0 0 0 0 0 0 0 0 0 127 0"/>
<feOffset dy="4"/>
<feGaussianBlur stdDeviation="2"/>
<feColorMatrix type="matrix" values="0 0 0 0 0 0 0 0 0 0 0 0 0 0 0 0 0 0 0.25 0"/>
<feBlend mode="normal" in2="BackgroundImageFix" result="effect1_dropShadow"/>
<feBlend mode="normal" in="SourceGraphic" in2="effect1_dropShadow" result="shape"/>
</filter>
</defs>
</svg>
